<mxfile host="app.diagrams.net" agent="Mozilla/5.0 (Windows NT 10.0; Win64; x64) AppleWebKit/537.36 (KHTML, like Gecko) Chrome/140.0.0.0 Safari/537.36 Edg/140.0.0.0" version="28.2.5">
  <diagram name="Page-1" id="8G-D1ssDuEFYDf0gz33x">
    <mxGraphModel dx="3918" dy="2602" grid="1" gridSize="10" guides="1" tooltips="1" connect="1" arrows="1" fold="1" page="1" pageScale="1" pageWidth="850" pageHeight="1100" math="0" shadow="0">
      <root>
        <mxCell id="0" />
        <mxCell id="1" parent="0" />
        <mxCell id="y-HyT_H8LAneH-4PMTHc-32" value="" style="rounded=0;whiteSpace=wrap;html=1;" vertex="1" parent="1">
          <mxGeometry x="-550" y="100" width="490" height="440" as="geometry" />
        </mxCell>
        <mxCell id="y-HyT_H8LAneH-4PMTHc-20" value="" style="rounded=0;whiteSpace=wrap;html=1;" vertex="1" parent="1">
          <mxGeometry x="-420" y="100" width="60" height="40" as="geometry" />
        </mxCell>
        <mxCell id="y-HyT_H8LAneH-4PMTHc-6" value="" style="rounded=0;whiteSpace=wrap;html=1;" vertex="1" parent="1">
          <mxGeometry x="-550" y="140" width="490" height="30" as="geometry" />
        </mxCell>
        <mxCell id="y-HyT_H8LAneH-4PMTHc-7" value="Welcome Banner" style="text;html=1;align=center;verticalAlign=middle;whiteSpace=wrap;rounded=0;" vertex="1" parent="1">
          <mxGeometry x="-385" y="140" width="160" height="30" as="geometry" />
        </mxCell>
        <mxCell id="y-HyT_H8LAneH-4PMTHc-9" value="" style="rounded=0;whiteSpace=wrap;html=1;" vertex="1" parent="1">
          <mxGeometry x="-70" y="140" width="10" height="10" as="geometry" />
        </mxCell>
        <mxCell id="y-HyT_H8LAneH-4PMTHc-8" value="" style="endArrow=none;html=1;rounded=0;exitX=0;exitY=1;exitDx=0;exitDy=0;" edge="1" parent="1" source="y-HyT_H8LAneH-4PMTHc-9">
          <mxGeometry width="50" height="50" relative="1" as="geometry">
            <mxPoint x="-80" y="160" as="sourcePoint" />
            <mxPoint x="-60" y="140" as="targetPoint" />
          </mxGeometry>
        </mxCell>
        <mxCell id="y-HyT_H8LAneH-4PMTHc-10" value="" style="endArrow=none;html=1;rounded=0;exitX=0;exitY=0;exitDx=0;exitDy=0;entryX=1;entryY=1;entryDx=0;entryDy=0;" edge="1" parent="1" source="y-HyT_H8LAneH-4PMTHc-9" target="y-HyT_H8LAneH-4PMTHc-9">
          <mxGeometry width="50" height="50" relative="1" as="geometry">
            <mxPoint x="50" y="190" as="sourcePoint" />
            <mxPoint x="100" y="140" as="targetPoint" />
          </mxGeometry>
        </mxCell>
        <mxCell id="y-HyT_H8LAneH-4PMTHc-15" value="" style="rounded=0;whiteSpace=wrap;html=1;" vertex="1" parent="1">
          <mxGeometry x="-550" y="510" width="490" height="30" as="geometry" />
        </mxCell>
        <mxCell id="y-HyT_H8LAneH-4PMTHc-16" value="Copyright information, disclaimers, etc." style="text;html=1;align=center;verticalAlign=middle;whiteSpace=wrap;rounded=0;" vertex="1" parent="1">
          <mxGeometry x="-420" y="510" width="230" height="30" as="geometry" />
        </mxCell>
        <mxCell id="y-HyT_H8LAneH-4PMTHc-23" value="" style="rounded=0;whiteSpace=wrap;html=1;" vertex="1" parent="1">
          <mxGeometry x="-550" y="100" width="70" height="40" as="geometry" />
        </mxCell>
        <mxCell id="y-HyT_H8LAneH-4PMTHc-24" value="" style="rounded=0;whiteSpace=wrap;html=1;" vertex="1" parent="1">
          <mxGeometry x="-480" y="100" width="70" height="40" as="geometry" />
        </mxCell>
        <mxCell id="y-HyT_H8LAneH-4PMTHc-25" value="" style="rounded=0;whiteSpace=wrap;html=1;" vertex="1" parent="1">
          <mxGeometry x="-410" y="100" width="70" height="40" as="geometry" />
        </mxCell>
        <mxCell id="y-HyT_H8LAneH-4PMTHc-26" value="" style="rounded=0;whiteSpace=wrap;html=1;" vertex="1" parent="1">
          <mxGeometry x="-340" y="100" width="70" height="40" as="geometry" />
        </mxCell>
        <mxCell id="y-HyT_H8LAneH-4PMTHc-27" value="" style="rounded=0;whiteSpace=wrap;html=1;" vertex="1" parent="1">
          <mxGeometry x="-270" y="100" width="70" height="40" as="geometry" />
        </mxCell>
        <mxCell id="y-HyT_H8LAneH-4PMTHc-28" value="" style="rounded=0;whiteSpace=wrap;html=1;" vertex="1" parent="1">
          <mxGeometry x="-200" y="100" width="70" height="40" as="geometry" />
        </mxCell>
        <mxCell id="y-HyT_H8LAneH-4PMTHc-29" value="" style="rounded=0;whiteSpace=wrap;html=1;" vertex="1" parent="1">
          <mxGeometry x="-130" y="100" width="70" height="40" as="geometry" />
        </mxCell>
        <mxCell id="y-HyT_H8LAneH-4PMTHc-4" value="Logo and Name" style="text;html=1;align=center;verticalAlign=middle;whiteSpace=wrap;rounded=0;" vertex="1" parent="1">
          <mxGeometry x="-545" y="105" width="60" height="30" as="geometry" />
        </mxCell>
        <mxCell id="y-HyT_H8LAneH-4PMTHc-13" value="Home" style="text;html=1;align=center;verticalAlign=middle;whiteSpace=wrap;rounded=0;" vertex="1" parent="1">
          <mxGeometry x="-475" y="105" width="60" height="30" as="geometry" />
        </mxCell>
        <mxCell id="y-HyT_H8LAneH-4PMTHc-19" value="Chat" style="text;html=1;align=center;verticalAlign=middle;whiteSpace=wrap;rounded=0;" vertex="1" parent="1">
          <mxGeometry x="-405" y="105" width="60" height="30" as="geometry" />
        </mxCell>
        <mxCell id="y-HyT_H8LAneH-4PMTHc-296" style="edgeStyle=orthogonalEdgeStyle;rounded=0;orthogonalLoop=1;jettySize=auto;html=1;exitX=0.5;exitY=0;exitDx=0;exitDy=0;entryX=0.5;entryY=1;entryDx=0;entryDy=0;" edge="1" parent="1" source="y-HyT_H8LAneH-4PMTHc-14" target="y-HyT_H8LAneH-4PMTHc-186">
          <mxGeometry relative="1" as="geometry">
            <Array as="points">
              <mxPoint x="-235" y="-30" />
              <mxPoint x="-330" y="-30" />
            </Array>
          </mxGeometry>
        </mxCell>
        <mxCell id="y-HyT_H8LAneH-4PMTHc-14" value="Resources" style="text;html=1;align=center;verticalAlign=middle;whiteSpace=wrap;rounded=0;" vertex="1" parent="1">
          <mxGeometry x="-265" y="105" width="60" height="30" as="geometry" />
        </mxCell>
        <mxCell id="y-HyT_H8LAneH-4PMTHc-18" value="Account" style="text;html=1;align=center;verticalAlign=middle;whiteSpace=wrap;rounded=0;" vertex="1" parent="1">
          <mxGeometry x="-125" y="105" width="60" height="30" as="geometry" />
        </mxCell>
        <mxCell id="y-HyT_H8LAneH-4PMTHc-22" value="Journal" style="text;html=1;align=center;verticalAlign=middle;whiteSpace=wrap;rounded=0;" vertex="1" parent="1">
          <mxGeometry x="-335" y="105" width="60" height="30" as="geometry" />
        </mxCell>
        <mxCell id="y-HyT_H8LAneH-4PMTHc-33" value="" style="rounded=0;whiteSpace=wrap;html=1;" vertex="1" parent="1">
          <mxGeometry x="-550" y="170" width="240" height="180" as="geometry" />
        </mxCell>
        <mxCell id="y-HyT_H8LAneH-4PMTHc-36" value="" style="rounded=0;whiteSpace=wrap;html=1;" vertex="1" parent="1">
          <mxGeometry x="-310" y="170" width="250" height="180" as="geometry" />
        </mxCell>
        <mxCell id="y-HyT_H8LAneH-4PMTHc-37" value="" style="rounded=0;whiteSpace=wrap;html=1;" vertex="1" parent="1">
          <mxGeometry x="-550" y="350" width="240" height="160" as="geometry" />
        </mxCell>
        <mxCell id="y-HyT_H8LAneH-4PMTHc-39" value="" style="rounded=0;whiteSpace=wrap;html=1;" vertex="1" parent="1">
          <mxGeometry x="-550" y="350" width="490" height="160" as="geometry" />
        </mxCell>
        <mxCell id="y-HyT_H8LAneH-4PMTHc-43" value="Feedback" style="text;html=1;align=center;verticalAlign=middle;whiteSpace=wrap;rounded=0;" vertex="1" parent="1">
          <mxGeometry x="-195" y="105" width="60" height="30" as="geometry" />
        </mxCell>
        <mxCell id="y-HyT_H8LAneH-4PMTHc-45" value="Chat Overview" style="text;html=1;align=center;verticalAlign=middle;whiteSpace=wrap;rounded=0;" vertex="1" parent="1">
          <mxGeometry x="-485" y="170" width="110" height="30" as="geometry" />
        </mxCell>
        <mxCell id="y-HyT_H8LAneH-4PMTHc-46" value="Journal Overview" style="text;html=1;align=center;verticalAlign=middle;whiteSpace=wrap;rounded=0;" vertex="1" parent="1">
          <mxGeometry x="-240" y="170" width="110" height="30" as="geometry" />
        </mxCell>
        <mxCell id="y-HyT_H8LAneH-4PMTHc-47" value="General information about the chat feature. Brief disclaimer about privacy policy and directions on how to receive more professional help." style="text;html=1;align=left;verticalAlign=middle;whiteSpace=wrap;rounded=0;" vertex="1" parent="1">
          <mxGeometry x="-460" y="210" width="142.42" height="90" as="geometry" />
        </mxCell>
        <mxCell id="y-HyT_H8LAneH-4PMTHc-48" value="" style="shape=image;verticalLabelPosition=bottom;labelBackgroundColor=default;verticalAlign=top;aspect=fixed;imageAspect=0;editableCssRules=.*;image=data:image/svg+xml,PHN2ZyB4bWxuczp4bGluaz0iaHR0cDovL3d3dy53My5vcmcvMTk5OS94bGluayIgeG1sbnM9Imh0dHA6Ly93d3cudzMub3JnLzIwMDAvc3ZnIiBvdmVyZmxvdz0iaGlkZGVuIiBpZD0iSWNvbnNfSW1hZ2UiIHZpZXdCb3g9IjggMTggODAgNjIiIHZlcnNpb249IjEuMSIgd2lkdGg9IjgwIiBoZWlnaHQ9IjYyIj48cGF0aCBkPSJNIDc4IDY1LjYgTCA2NC4zMSA0My43OCBDIDY0LjA2NSA0My4zODAxIDYzLjYyODkgNDMuMTM3NCA2My4xNiA0My4xNCBDIDYyLjY4OSA0My4xMzk4IDYyLjI1MDkgNDMuMzgxNSA2MiA0My43OCBMIDU4IDUwLjIgTCA2Ni41OCA2NC4wOCBDIDY3LjMwNjEgNjUuMTc4IDY3LjQ2MjIgNjYuNTU3NCA2NyA2Ny43OSBMIDc2LjcgNjcuNzkgQyA3Ny40OTQzIDY3LjgyOTcgNzguMTcwNCA2Ny4yMTc5IDc4LjIxIDY2LjQyMzYgQyA3OC4yMjQ1IDY2LjEzNDIgNzguMTUxMyA2NS44NDcyIDc4IDY1LjYgWiIvPjxwYXRoIGQ9Ik0gNjMuMSA2NS43MyBMIDQxLjM1IDMwLjM0IEMgNDEuMDcwOSAyOS45Nzk1IDQwLjYzNTcgMjkuNzc0OSA0MC4xOCAyOS43OSBMIDQwIDI5Ljc5IEwgMzkuODIgMjkuNzkgQyAzOS4zNjQzIDI5Ljc3NDkgMzguOTI5MSAyOS45Nzk1IDM4LjY1IDMwLjM0IEwgMTYuOSA2NS43MyBDIDE2LjU5MTkgNjYuMTYxMSAxNi41NDk1IDY2LjcyNzkgMTYuNzkgNjcuMiBDIDE3LjAzMjYgNjcuNjI3OCAxNy41MTM1IDY3Ljg2MjMgMTggNjcuNzkgTCA2MiA2Ny43OSBDIDYyLjQ4NjUgNjcuODYyMyA2Mi45Njc0IDY3LjYyNzggNjMuMjEgNjcuMiBDIDYzLjQ1MDUgNjYuNzI3OSA2My40MDgxIDY2LjE2MTEgNjMuMSA2NS43MyBaIE0gNDMuNjQgNDYuOTIgTCA0MC4xOCA1MCBMIDM2LjcyIDQ2LjkyIEwgMzEgNTAuMzggTCA0MCAzNS43OSBMIDQ4Ljc2IDUwIFoiLz48Y2lyY2xlIHI9IjMiIGN5PSIzMiIgY3g9IjI3Ii8+PHBhdGggZD0iTSAxNCA3NCBMIDE0IDI0IEwgODIgMjQgTCA4MiA3NCBaIE0gODggODAgTCA4OCAxOCBMIDggMTggTCA4IDgwIFoiLz48L3N2Zz4=;" vertex="1" parent="1">
          <mxGeometry x="-545" y="210" width="77.42" height="60" as="geometry" />
        </mxCell>
        <mxCell id="y-HyT_H8LAneH-4PMTHc-49" value="&lt;font style=&quot;font-size: 9px;&quot;&gt;Example chat (attention grabber)&lt;/font&gt;" style="text;html=1;align=center;verticalAlign=middle;whiteSpace=wrap;rounded=0;" vertex="1" parent="1">
          <mxGeometry x="-546.29" y="260" width="78.71" height="50" as="geometry" />
        </mxCell>
        <mxCell id="y-HyT_H8LAneH-4PMTHc-50" value="" style="shape=image;verticalLabelPosition=bottom;labelBackgroundColor=default;verticalAlign=top;aspect=fixed;imageAspect=0;editableCssRules=.*;image=data:image/svg+xml,PHN2ZyB4bWxuczp4bGluaz0iaHR0cDovL3d3dy53My5vcmcvMTk5OS94bGluayIgeG1sbnM9Imh0dHA6Ly93d3cudzMub3JnLzIwMDAvc3ZnIiBvdmVyZmxvdz0iaGlkZGVuIiBpZD0iSWNvbnNfSW1hZ2UiIHZpZXdCb3g9IjggMTggODAgNjIiIHZlcnNpb249IjEuMSIgd2lkdGg9IjgwIiBoZWlnaHQ9IjYyIj48cGF0aCBkPSJNIDc4IDY1LjYgTCA2NC4zMSA0My43OCBDIDY0LjA2NSA0My4zODAxIDYzLjYyODkgNDMuMTM3NCA2My4xNiA0My4xNCBDIDYyLjY4OSA0My4xMzk4IDYyLjI1MDkgNDMuMzgxNSA2MiA0My43OCBMIDU4IDUwLjIgTCA2Ni41OCA2NC4wOCBDIDY3LjMwNjEgNjUuMTc4IDY3LjQ2MjIgNjYuNTU3NCA2NyA2Ny43OSBMIDc2LjcgNjcuNzkgQyA3Ny40OTQzIDY3LjgyOTcgNzguMTcwNCA2Ny4yMTc5IDc4LjIxIDY2LjQyMzYgQyA3OC4yMjQ1IDY2LjEzNDIgNzguMTUxMyA2NS44NDcyIDc4IDY1LjYgWiIvPjxwYXRoIGQ9Ik0gNjMuMSA2NS43MyBMIDQxLjM1IDMwLjM0IEMgNDEuMDcwOSAyOS45Nzk1IDQwLjYzNTcgMjkuNzc0OSA0MC4xOCAyOS43OSBMIDQwIDI5Ljc5IEwgMzkuODIgMjkuNzkgQyAzOS4zNjQzIDI5Ljc3NDkgMzguOTI5MSAyOS45Nzk1IDM4LjY1IDMwLjM0IEwgMTYuOSA2NS43MyBDIDE2LjU5MTkgNjYuMTYxMSAxNi41NDk1IDY2LjcyNzkgMTYuNzkgNjcuMiBDIDE3LjAzMjYgNjcuNjI3OCAxNy41MTM1IDY3Ljg2MjMgMTggNjcuNzkgTCA2MiA2Ny43OSBDIDYyLjQ4NjUgNjcuODYyMyA2Mi45Njc0IDY3LjYyNzggNjMuMjEgNjcuMiBDIDYzLjQ1MDUgNjYuNzI3OSA2My40MDgxIDY2LjE2MTEgNjMuMSA2NS43MyBaIE0gNDMuNjQgNDYuOTIgTCA0MC4xOCA1MCBMIDM2LjcyIDQ2LjkyIEwgMzEgNTAuMzggTCA0MCAzNS43OSBMIDQ4Ljc2IDUwIFoiLz48Y2lyY2xlIHI9IjMiIGN5PSIzMiIgY3g9IjI3Ii8+PHBhdGggZD0iTSAxNCA3NCBMIDE0IDI0IEwgODIgMjQgTCA4MiA3NCBaIE0gODggODAgTCA4OCAxOCBMIDggMTggTCA4IDgwIFoiLz48L3N2Zz4=;" vertex="1" parent="1">
          <mxGeometry x="-302.42" y="210" width="77.42" height="60" as="geometry" />
        </mxCell>
        <mxCell id="y-HyT_H8LAneH-4PMTHc-51" value="&lt;font style=&quot;font-size: 9px;&quot;&gt;Example journal entry (attention grabber)&lt;/font&gt;" style="text;html=1;align=center;verticalAlign=middle;whiteSpace=wrap;rounded=0;" vertex="1" parent="1">
          <mxGeometry x="-309" y="263" width="93.71" height="50" as="geometry" />
        </mxCell>
        <mxCell id="y-HyT_H8LAneH-4PMTHc-52" value="Information on the journal feature.&amp;nbsp;" style="text;html=1;align=left;verticalAlign=middle;whiteSpace=wrap;rounded=0;" vertex="1" parent="1">
          <mxGeometry x="-215" y="180" width="142.42" height="90" as="geometry" />
        </mxCell>
        <mxCell id="y-HyT_H8LAneH-4PMTHc-53" value="" style="rounded=0;whiteSpace=wrap;html=1;" vertex="1" parent="1">
          <mxGeometry x="-500" y="311" width="140" height="30" as="geometry" />
        </mxCell>
        <mxCell id="y-HyT_H8LAneH-4PMTHc-54" value="Resources" style="text;html=1;align=center;verticalAlign=middle;whiteSpace=wrap;rounded=0;fontSize=10;" vertex="1" parent="1">
          <mxGeometry x="-425" y="311" width="60" height="30" as="geometry" />
        </mxCell>
        <mxCell id="y-HyT_H8LAneH-4PMTHc-55" value="Chat" style="text;html=1;align=center;verticalAlign=middle;whiteSpace=wrap;rounded=0;fontSize=10;" vertex="1" parent="1">
          <mxGeometry x="-490" y="311" width="50" height="30" as="geometry" />
        </mxCell>
        <mxCell id="y-HyT_H8LAneH-4PMTHc-56" value="" style="endArrow=none;html=1;rounded=0;entryX=0.5;entryY=0;entryDx=0;entryDy=0;exitX=0.5;exitY=1;exitDx=0;exitDy=0;" edge="1" parent="1" source="y-HyT_H8LAneH-4PMTHc-53" target="y-HyT_H8LAneH-4PMTHc-53">
          <mxGeometry width="50" height="50" relative="1" as="geometry">
            <mxPoint x="-480" y="371" as="sourcePoint" />
            <mxPoint x="-430" y="321" as="targetPoint" />
          </mxGeometry>
        </mxCell>
        <mxCell id="y-HyT_H8LAneH-4PMTHc-57" value="" style="rounded=0;whiteSpace=wrap;html=1;" vertex="1" parent="1">
          <mxGeometry x="-220" y="310" width="70" height="29" as="geometry" />
        </mxCell>
        <mxCell id="y-HyT_H8LAneH-4PMTHc-60" value="Journal" style="text;html=1;align=center;verticalAlign=middle;whiteSpace=wrap;rounded=0;fontSize=10;" vertex="1" parent="1">
          <mxGeometry x="-215" y="309" width="60" height="30" as="geometry" />
        </mxCell>
        <mxCell id="y-HyT_H8LAneH-4PMTHc-61" value="Health Overview (Returning users only)" style="text;html=1;align=center;verticalAlign=middle;whiteSpace=wrap;rounded=0;" vertex="1" parent="1">
          <mxGeometry x="-418" y="354" width="230" height="30" as="geometry" />
        </mxCell>
        <mxCell id="y-HyT_H8LAneH-4PMTHc-63" value="" style="shape=image;verticalLabelPosition=bottom;labelBackgroundColor=default;verticalAlign=top;aspect=fixed;imageAspect=0;editableCssRules=.*;image=data:image/svg+xml,PHN2ZyB4bWxuczp4bGluaz0iaHR0cDovL3d3dy53My5vcmcvMTk5OS94bGluayIgeG1sbnM9Imh0dHA6Ly93d3cudzMub3JnLzIwMDAvc3ZnIiBvdmVyZmxvdz0iaGlkZGVuIiBpZD0iSWNvbnNfQmFyQ2hhcnRfUlRMIiB2aWV3Qm94PSIxNCAxNCA2OCA2OCIgdmVyc2lvbj0iMS4xIiB3aWR0aD0iNjgiIGhlaWdodD0iNjgiPjxnPjxwYXRoIGQ9Ik0gNzYgMTQgTCA4MiAxNCBMIDgyIDgyIEwgMTQgODIgTCAxNCA3NiBMIDc2IDc2IFoiLz48cmVjdCBoZWlnaHQ9IjM1IiB3aWR0aD0iMTEiIHk9IjM1IiB4PSI1OSIvPjxyZWN0IGhlaWdodD0iNTYiIHdpZHRoPSIxMSIgeT0iMTQiIHg9IjQ0Ii8+PHJlY3QgaGVpZ2h0PSIzNSIgd2lkdGg9IjExIiB5PSIzNSIgeD0iMjkiLz48cmVjdCBoZWlnaHQ9IjE4IiB3aWR0aD0iMTEiIHk9IjUyIiB4PSIxNCIvPjwvZz48L3N2Zz4=;" vertex="1" parent="1">
          <mxGeometry x="-250" y="390" width="80" height="80" as="geometry" />
        </mxCell>
        <mxCell id="y-HyT_H8LAneH-4PMTHc-64" value="Summary of recent chats.&amp;nbsp;" style="text;html=1;align=left;verticalAlign=middle;whiteSpace=wrap;rounded=0;" vertex="1" parent="1">
          <mxGeometry x="-460" y="360" width="142.42" height="90" as="geometry" />
        </mxCell>
        <mxCell id="y-HyT_H8LAneH-4PMTHc-65" value="&lt;font style=&quot;font-size: 9px;&quot;&gt;Chart of user mood over past week&lt;/font&gt;" style="text;html=1;align=center;verticalAlign=middle;whiteSpace=wrap;rounded=0;" vertex="1" parent="1">
          <mxGeometry x="-256.85" y="460" width="93.71" height="50" as="geometry" />
        </mxCell>
        <mxCell id="y-HyT_H8LAneH-4PMTHc-66" value="&lt;b&gt;Home Page&lt;/b&gt;" style="text;html=1;align=center;verticalAlign=middle;whiteSpace=wrap;rounded=0;fontSize=20;" vertex="1" parent="1">
          <mxGeometry x="-404" y="550" width="198" height="30" as="geometry" />
        </mxCell>
        <mxCell id="y-HyT_H8LAneH-4PMTHc-67" value="" style="rounded=0;whiteSpace=wrap;html=1;" vertex="1" parent="1">
          <mxGeometry x="180" y="190" width="490" height="440" as="geometry" />
        </mxCell>
        <mxCell id="y-HyT_H8LAneH-4PMTHc-68" value="" style="rounded=0;whiteSpace=wrap;html=1;" vertex="1" parent="1">
          <mxGeometry x="310" y="190" width="60" height="40" as="geometry" />
        </mxCell>
        <mxCell id="y-HyT_H8LAneH-4PMTHc-74" value="" style="rounded=0;whiteSpace=wrap;html=1;" vertex="1" parent="1">
          <mxGeometry x="180" y="600" width="490" height="30" as="geometry" />
        </mxCell>
        <mxCell id="y-HyT_H8LAneH-4PMTHc-75" value="Copyright information, disclaimers, etc." style="text;html=1;align=center;verticalAlign=middle;whiteSpace=wrap;rounded=0;" vertex="1" parent="1">
          <mxGeometry x="310" y="600" width="230" height="30" as="geometry" />
        </mxCell>
        <mxCell id="y-HyT_H8LAneH-4PMTHc-76" value="" style="rounded=0;whiteSpace=wrap;html=1;" vertex="1" parent="1">
          <mxGeometry x="180" y="190" width="70" height="40" as="geometry" />
        </mxCell>
        <mxCell id="y-HyT_H8LAneH-4PMTHc-77" value="" style="rounded=0;whiteSpace=wrap;html=1;" vertex="1" parent="1">
          <mxGeometry x="250" y="190" width="70" height="40" as="geometry" />
        </mxCell>
        <mxCell id="y-HyT_H8LAneH-4PMTHc-78" value="" style="rounded=0;whiteSpace=wrap;html=1;" vertex="1" parent="1">
          <mxGeometry x="320" y="190" width="70" height="40" as="geometry" />
        </mxCell>
        <mxCell id="y-HyT_H8LAneH-4PMTHc-79" value="" style="rounded=0;whiteSpace=wrap;html=1;" vertex="1" parent="1">
          <mxGeometry x="390" y="190" width="70" height="40" as="geometry" />
        </mxCell>
        <mxCell id="y-HyT_H8LAneH-4PMTHc-80" value="" style="rounded=0;whiteSpace=wrap;html=1;" vertex="1" parent="1">
          <mxGeometry x="460" y="190" width="70" height="40" as="geometry" />
        </mxCell>
        <mxCell id="y-HyT_H8LAneH-4PMTHc-81" value="" style="rounded=0;whiteSpace=wrap;html=1;" vertex="1" parent="1">
          <mxGeometry x="530" y="190" width="70" height="40" as="geometry" />
        </mxCell>
        <mxCell id="y-HyT_H8LAneH-4PMTHc-82" value="" style="rounded=0;whiteSpace=wrap;html=1;" vertex="1" parent="1">
          <mxGeometry x="600" y="190" width="70" height="40" as="geometry" />
        </mxCell>
        <mxCell id="y-HyT_H8LAneH-4PMTHc-83" value="Logo and Name" style="text;html=1;align=center;verticalAlign=middle;whiteSpace=wrap;rounded=0;" vertex="1" parent="1">
          <mxGeometry x="185" y="195" width="60" height="30" as="geometry" />
        </mxCell>
        <mxCell id="y-HyT_H8LAneH-4PMTHc-84" value="Home" style="text;html=1;align=center;verticalAlign=middle;whiteSpace=wrap;rounded=0;" vertex="1" parent="1">
          <mxGeometry x="255" y="195" width="60" height="30" as="geometry" />
        </mxCell>
        <mxCell id="y-HyT_H8LAneH-4PMTHc-85" value="Chat" style="text;html=1;align=center;verticalAlign=middle;whiteSpace=wrap;rounded=0;" vertex="1" parent="1">
          <mxGeometry x="325" y="195" width="60" height="30" as="geometry" />
        </mxCell>
        <mxCell id="y-HyT_H8LAneH-4PMTHc-86" value="Resources" style="text;html=1;align=center;verticalAlign=middle;whiteSpace=wrap;rounded=0;" vertex="1" parent="1">
          <mxGeometry x="465" y="195" width="60" height="30" as="geometry" />
        </mxCell>
        <mxCell id="y-HyT_H8LAneH-4PMTHc-87" value="Account" style="text;html=1;align=center;verticalAlign=middle;whiteSpace=wrap;rounded=0;" vertex="1" parent="1">
          <mxGeometry x="605" y="195" width="60" height="30" as="geometry" />
        </mxCell>
        <mxCell id="y-HyT_H8LAneH-4PMTHc-88" value="Journal" style="text;html=1;align=center;verticalAlign=middle;whiteSpace=wrap;rounded=0;" vertex="1" parent="1">
          <mxGeometry x="395" y="195" width="60" height="30" as="geometry" />
        </mxCell>
        <mxCell id="y-HyT_H8LAneH-4PMTHc-93" value="Feedback" style="text;html=1;align=center;verticalAlign=middle;whiteSpace=wrap;rounded=0;" vertex="1" parent="1">
          <mxGeometry x="535" y="195" width="60" height="30" as="geometry" />
        </mxCell>
        <mxCell id="y-HyT_H8LAneH-4PMTHc-112" value="&lt;b&gt;Account Page&lt;/b&gt;" style="text;html=1;align=center;verticalAlign=middle;whiteSpace=wrap;rounded=0;fontSize=20;" vertex="1" parent="1">
          <mxGeometry x="326" y="640" width="198" height="30" as="geometry" />
        </mxCell>
        <mxCell id="y-HyT_H8LAneH-4PMTHc-119" value="" style="rounded=0;whiteSpace=wrap;html=1;" vertex="1" parent="1">
          <mxGeometry x="217.5" y="270" width="95" height="120" as="geometry" />
        </mxCell>
        <mxCell id="y-HyT_H8LAneH-4PMTHc-113" value="" style="shape=image;verticalLabelPosition=bottom;labelBackgroundColor=default;verticalAlign=top;aspect=fixed;imageAspect=0;editableCssRules=.*;image=data:image/svg+xml,PHN2ZyB4bWxuczp4bGluaz0iaHR0cDovL3d3dy53My5vcmcvMTk5OS94bGluayIgeG1sbnM9Imh0dHA6Ly93d3cudzMub3JnLzIwMDAvc3ZnIiBvdmVyZmxvdz0iaGlkZGVuIiBpZD0iSWNvbnNfVXNlcl9NIiB2aWV3Qm94PSIxNiAxNCA2NCA2OCIgd2lkdGg9IjY0IiBoZWlnaHQ9IjY4Ij48ZyBpZD0iSWNvbnMiPjxwYXRoIGQ9Ik00OCAxNkM1NS43MzIgMTYgNjIgMjIuMjY4IDYyIDMwIDYyIDM3LjczMiA1NS43MzIgNDQgNDggNDQgNDAuMjY4IDQ0IDM0IDM3LjczMiAzNCAzMCAzNC4wMDc3IDIyLjI3MTIgNDAuMjcxMiAxNi4wMDc3IDQ4IDE2TTQ4IDE0QzM5LjE2MzQgMTQgMzIgMjEuMTYzNCAzMiAzMCAzMiAzOC44MzY2IDM5LjE2MzQgNDYgNDggNDYgNTYuODM2NiA0NiA2NCAzOC44MzY2IDY0IDMwIDY0IDIxLjE2MzQgNTYuODM2NiAxNCA0OCAxNFoiLz48cGF0aCBkPSJNODAgODIgNzggODIgNzggNjYuNUM3Ny45NTI0IDY0LjM3NTkgNzYuOTUxNyA2Mi4zODU5IDc1LjI3NSA2MS4wODEgNzAuODg5MyA1Ny43MTU4IDY1Ljg2NzggNTUuMjczMSA2MC41MTMgNTMuOSA1Ni40NTg3IDUyLjY1MjQgNTIuMjQxOSA1Mi4wMTIxIDQ4IDUyIDQzLjc1OTQgNTIuMDczNiAzOS41NDc2IDUyLjcxMjYgMzUuNDc2IDUzLjkgMzAuMTc3MSA1NS40NTIgMjUuMTc3OCA1Ny44ODYxIDIwLjY4OCA2MS4xIDE5LjAyODIgNjIuNDA2NCAxOC4wNDE3IDY0LjM4ODIgMTggNjYuNUwxOCA4MiAxNiA4MiAxNiA2Ni41QzE2LjA0OTYgNjMuNzY4NiAxNy4zMjYzIDYxLjIwNDcgMTkuNDc2IDU5LjUxOSAyNC4xNjc1IDU2LjE1MTIgMjkuMzk0OSA1My42MDEyIDM0LjkzNyA1MS45NzcgMzkuMTgzOSA1MC43Mzk2IDQzLjU3NzEgNTAuMDc0NyA0OCA1MCA1Mi40MzIxIDUwLjAxMDkgNTYuODM4MiA1MC42Nzc4IDYxLjA3NSA1MS45NzkgNjYuNjg0NSA1My40MjQ0IDcxLjk0MjkgNTUuOTkxMyA3Ni41MzMgNTkuNTI1IDc4LjY3ODQgNjEuMjEwNiA3OS45NTE2IDYzLjc3MiA4MCA2Ni41WiIvPjwvZz48L3N2Zz4=;" vertex="1" parent="1">
          <mxGeometry x="232.5" y="280" width="64" height="68" as="geometry" />
        </mxCell>
        <mxCell id="y-HyT_H8LAneH-4PMTHc-114" value="&lt;font style=&quot;font-size: 15px;&quot;&gt;Username&lt;/font&gt;" style="text;html=1;align=center;verticalAlign=middle;whiteSpace=wrap;rounded=0;" vertex="1" parent="1">
          <mxGeometry x="234.5" y="353" width="60" height="30" as="geometry" />
        </mxCell>
        <mxCell id="y-HyT_H8LAneH-4PMTHc-120" value="" style="rounded=0;whiteSpace=wrap;html=1;" vertex="1" parent="1">
          <mxGeometry x="312.5" y="270" width="280" height="120" as="geometry" />
        </mxCell>
        <mxCell id="y-HyT_H8LAneH-4PMTHc-125" value="" style="rounded=0;whiteSpace=wrap;html=1;" vertex="1" parent="1">
          <mxGeometry x="312.5" y="270" width="280" height="40" as="geometry" />
        </mxCell>
        <mxCell id="y-HyT_H8LAneH-4PMTHc-121" value="Change Username" style="text;html=1;align=center;verticalAlign=middle;whiteSpace=wrap;rounded=0;fontSize=15;" vertex="1" parent="1">
          <mxGeometry x="375" y="275" width="155" height="30" as="geometry" />
        </mxCell>
        <mxCell id="y-HyT_H8LAneH-4PMTHc-126" value="" style="rounded=0;whiteSpace=wrap;html=1;" vertex="1" parent="1">
          <mxGeometry x="312.5" y="310" width="280" height="40" as="geometry" />
        </mxCell>
        <mxCell id="y-HyT_H8LAneH-4PMTHc-122" value="Change Password" style="text;html=1;align=center;verticalAlign=middle;whiteSpace=wrap;rounded=0;fontSize=15;" vertex="1" parent="1">
          <mxGeometry x="375" y="315" width="155" height="30" as="geometry" />
        </mxCell>
        <mxCell id="y-HyT_H8LAneH-4PMTHc-123" value="Delete Account" style="text;html=1;align=center;verticalAlign=middle;whiteSpace=wrap;rounded=0;fontSize=15;" vertex="1" parent="1">
          <mxGeometry x="375" y="353" width="155" height="30" as="geometry" />
        </mxCell>
        <mxCell id="y-HyT_H8LAneH-4PMTHc-128" value="" style="rounded=0;whiteSpace=wrap;html=1;" vertex="1" parent="1">
          <mxGeometry x="312.5" y="390" width="280" height="40" as="geometry" />
        </mxCell>
        <mxCell id="y-HyT_H8LAneH-4PMTHc-129" value=".&lt;div&gt;.&lt;/div&gt;&lt;div&gt;.&lt;/div&gt;" style="text;html=1;align=center;verticalAlign=middle;whiteSpace=wrap;rounded=0;fontSize=10;fontStyle=1" vertex="1" parent="1">
          <mxGeometry x="370" y="395" width="155" height="30" as="geometry" />
        </mxCell>
        <mxCell id="y-HyT_H8LAneH-4PMTHc-130" value="" style="rounded=0;whiteSpace=wrap;html=1;" vertex="1" parent="1">
          <mxGeometry x="85" y="-410" width="490" height="440" as="geometry" />
        </mxCell>
        <mxCell id="y-HyT_H8LAneH-4PMTHc-131" value="" style="rounded=0;whiteSpace=wrap;html=1;" vertex="1" parent="1">
          <mxGeometry x="215" y="-410" width="60" height="40" as="geometry" />
        </mxCell>
        <mxCell id="y-HyT_H8LAneH-4PMTHc-132" value="" style="rounded=0;whiteSpace=wrap;html=1;" vertex="1" parent="1">
          <mxGeometry x="85" width="490" height="30" as="geometry" />
        </mxCell>
        <mxCell id="y-HyT_H8LAneH-4PMTHc-133" value="Copyright information, disclaimers, etc." style="text;html=1;align=center;verticalAlign=middle;whiteSpace=wrap;rounded=0;" vertex="1" parent="1">
          <mxGeometry x="215" width="230" height="30" as="geometry" />
        </mxCell>
        <mxCell id="y-HyT_H8LAneH-4PMTHc-134" value="" style="rounded=0;whiteSpace=wrap;html=1;" vertex="1" parent="1">
          <mxGeometry x="85" y="-410" width="70" height="40" as="geometry" />
        </mxCell>
        <mxCell id="y-HyT_H8LAneH-4PMTHc-135" value="" style="rounded=0;whiteSpace=wrap;html=1;" vertex="1" parent="1">
          <mxGeometry x="155" y="-410" width="70" height="40" as="geometry" />
        </mxCell>
        <mxCell id="y-HyT_H8LAneH-4PMTHc-136" value="" style="rounded=0;whiteSpace=wrap;html=1;" vertex="1" parent="1">
          <mxGeometry x="225" y="-410" width="70" height="40" as="geometry" />
        </mxCell>
        <mxCell id="y-HyT_H8LAneH-4PMTHc-137" value="" style="rounded=0;whiteSpace=wrap;html=1;" vertex="1" parent="1">
          <mxGeometry x="295" y="-410" width="70" height="40" as="geometry" />
        </mxCell>
        <mxCell id="y-HyT_H8LAneH-4PMTHc-138" value="" style="rounded=0;whiteSpace=wrap;html=1;" vertex="1" parent="1">
          <mxGeometry x="365" y="-410" width="70" height="40" as="geometry" />
        </mxCell>
        <mxCell id="y-HyT_H8LAneH-4PMTHc-139" value="" style="rounded=0;whiteSpace=wrap;html=1;" vertex="1" parent="1">
          <mxGeometry x="435" y="-410" width="70" height="40" as="geometry" />
        </mxCell>
        <mxCell id="y-HyT_H8LAneH-4PMTHc-140" value="" style="rounded=0;whiteSpace=wrap;html=1;" vertex="1" parent="1">
          <mxGeometry x="505" y="-410" width="70" height="40" as="geometry" />
        </mxCell>
        <mxCell id="y-HyT_H8LAneH-4PMTHc-141" value="Logo and Name" style="text;html=1;align=center;verticalAlign=middle;whiteSpace=wrap;rounded=0;" vertex="1" parent="1">
          <mxGeometry x="90" y="-405" width="60" height="30" as="geometry" />
        </mxCell>
        <mxCell id="y-HyT_H8LAneH-4PMTHc-142" value="Home" style="text;html=1;align=center;verticalAlign=middle;whiteSpace=wrap;rounded=0;" vertex="1" parent="1">
          <mxGeometry x="160" y="-405" width="60" height="30" as="geometry" />
        </mxCell>
        <mxCell id="y-HyT_H8LAneH-4PMTHc-143" value="Chat" style="text;html=1;align=center;verticalAlign=middle;whiteSpace=wrap;rounded=0;" vertex="1" parent="1">
          <mxGeometry x="230" y="-405" width="60" height="30" as="geometry" />
        </mxCell>
        <mxCell id="y-HyT_H8LAneH-4PMTHc-144" value="Resources" style="text;html=1;align=center;verticalAlign=middle;whiteSpace=wrap;rounded=0;" vertex="1" parent="1">
          <mxGeometry x="370" y="-405" width="60" height="30" as="geometry" />
        </mxCell>
        <mxCell id="y-HyT_H8LAneH-4PMTHc-145" value="Account" style="text;html=1;align=center;verticalAlign=middle;whiteSpace=wrap;rounded=0;" vertex="1" parent="1">
          <mxGeometry x="510" y="-405" width="60" height="30" as="geometry" />
        </mxCell>
        <mxCell id="y-HyT_H8LAneH-4PMTHc-146" value="Journal" style="text;html=1;align=center;verticalAlign=middle;whiteSpace=wrap;rounded=0;" vertex="1" parent="1">
          <mxGeometry x="300" y="-405" width="60" height="30" as="geometry" />
        </mxCell>
        <mxCell id="y-HyT_H8LAneH-4PMTHc-147" value="Feedback" style="text;html=1;align=center;verticalAlign=middle;whiteSpace=wrap;rounded=0;" vertex="1" parent="1">
          <mxGeometry x="440" y="-405" width="60" height="30" as="geometry" />
        </mxCell>
        <mxCell id="y-HyT_H8LAneH-4PMTHc-148" value="&lt;b&gt;Feedback Page&lt;/b&gt;" style="text;html=1;align=center;verticalAlign=middle;whiteSpace=wrap;rounded=0;fontSize=20;" vertex="1" parent="1">
          <mxGeometry x="231" y="40" width="198" height="30" as="geometry" />
        </mxCell>
        <mxCell id="y-HyT_H8LAneH-4PMTHc-160" value="" style="rounded=0;whiteSpace=wrap;html=1;" vertex="1" parent="1">
          <mxGeometry x="154.5" y="-290" width="370" height="210" as="geometry" />
        </mxCell>
        <mxCell id="y-HyT_H8LAneH-4PMTHc-161" value="" style="rounded=0;whiteSpace=wrap;html=1;" vertex="1" parent="1">
          <mxGeometry x="85" y="-370" width="490" height="30" as="geometry" />
        </mxCell>
        <mxCell id="y-HyT_H8LAneH-4PMTHc-162" value="Feedback disclaimer" style="text;html=1;align=center;verticalAlign=middle;whiteSpace=wrap;rounded=0;" vertex="1" parent="1">
          <mxGeometry x="250" y="-370" width="160" height="30" as="geometry" />
        </mxCell>
        <mxCell id="y-HyT_H8LAneH-4PMTHc-163" value="(Text Entry Box)" style="text;html=1;align=center;verticalAlign=middle;whiteSpace=wrap;rounded=0;fontSize=15;" vertex="1" parent="1">
          <mxGeometry x="135" y="-320" width="155" height="30" as="geometry" />
        </mxCell>
        <mxCell id="y-HyT_H8LAneH-4PMTHc-164" value="__________&amp;nbsp;&amp;nbsp;" style="text;html=1;align=center;verticalAlign=middle;whiteSpace=wrap;rounded=0;fontSize=15;" vertex="1" parent="1">
          <mxGeometry x="140" y="-260" width="155" height="30" as="geometry" />
        </mxCell>
        <mxCell id="y-HyT_H8LAneH-4PMTHc-166" value="" style="rounded=0;whiteSpace=wrap;html=1;" vertex="1" parent="1">
          <mxGeometry x="467.5" y="-80" width="57" height="30" as="geometry" />
        </mxCell>
        <mxCell id="y-HyT_H8LAneH-4PMTHc-165" value="Submit" style="text;html=1;align=center;verticalAlign=middle;whiteSpace=wrap;rounded=0;fontSize=14;" vertex="1" parent="1">
          <mxGeometry x="467.5" y="-80" width="60" height="30" as="geometry" />
        </mxCell>
        <mxCell id="y-HyT_H8LAneH-4PMTHc-168" value="" style="rounded=0;whiteSpace=wrap;html=1;" vertex="1" parent="1">
          <mxGeometry x="-575" y="-560" width="490" height="440" as="geometry" />
        </mxCell>
        <mxCell id="y-HyT_H8LAneH-4PMTHc-169" value="" style="rounded=0;whiteSpace=wrap;html=1;" vertex="1" parent="1">
          <mxGeometry x="-445" y="-560" width="60" height="40" as="geometry" />
        </mxCell>
        <mxCell id="y-HyT_H8LAneH-4PMTHc-170" value="" style="rounded=0;whiteSpace=wrap;html=1;" vertex="1" parent="1">
          <mxGeometry x="-575" y="-150" width="490" height="30" as="geometry" />
        </mxCell>
        <mxCell id="y-HyT_H8LAneH-4PMTHc-171" value="Copyright information, disclaimers, etc." style="text;html=1;align=center;verticalAlign=middle;whiteSpace=wrap;rounded=0;" vertex="1" parent="1">
          <mxGeometry x="-445" y="-150" width="230" height="30" as="geometry" />
        </mxCell>
        <mxCell id="y-HyT_H8LAneH-4PMTHc-172" value="" style="rounded=0;whiteSpace=wrap;html=1;" vertex="1" parent="1">
          <mxGeometry x="-575" y="-560" width="70" height="40" as="geometry" />
        </mxCell>
        <mxCell id="y-HyT_H8LAneH-4PMTHc-173" value="" style="rounded=0;whiteSpace=wrap;html=1;" vertex="1" parent="1">
          <mxGeometry x="-505" y="-560" width="70" height="40" as="geometry" />
        </mxCell>
        <mxCell id="y-HyT_H8LAneH-4PMTHc-174" value="" style="rounded=0;whiteSpace=wrap;html=1;" vertex="1" parent="1">
          <mxGeometry x="-435" y="-560" width="70" height="40" as="geometry" />
        </mxCell>
        <mxCell id="y-HyT_H8LAneH-4PMTHc-175" value="" style="rounded=0;whiteSpace=wrap;html=1;" vertex="1" parent="1">
          <mxGeometry x="-365" y="-560" width="70" height="40" as="geometry" />
        </mxCell>
        <mxCell id="y-HyT_H8LAneH-4PMTHc-176" value="" style="rounded=0;whiteSpace=wrap;html=1;" vertex="1" parent="1">
          <mxGeometry x="-295" y="-560" width="70" height="40" as="geometry" />
        </mxCell>
        <mxCell id="y-HyT_H8LAneH-4PMTHc-177" value="" style="rounded=0;whiteSpace=wrap;html=1;" vertex="1" parent="1">
          <mxGeometry x="-225" y="-560" width="70" height="40" as="geometry" />
        </mxCell>
        <mxCell id="y-HyT_H8LAneH-4PMTHc-178" value="" style="rounded=0;whiteSpace=wrap;html=1;" vertex="1" parent="1">
          <mxGeometry x="-155" y="-560" width="70" height="40" as="geometry" />
        </mxCell>
        <mxCell id="y-HyT_H8LAneH-4PMTHc-179" value="Logo and Name" style="text;html=1;align=center;verticalAlign=middle;whiteSpace=wrap;rounded=0;" vertex="1" parent="1">
          <mxGeometry x="-570" y="-555" width="60" height="30" as="geometry" />
        </mxCell>
        <mxCell id="y-HyT_H8LAneH-4PMTHc-180" value="Home" style="text;html=1;align=center;verticalAlign=middle;whiteSpace=wrap;rounded=0;" vertex="1" parent="1">
          <mxGeometry x="-500" y="-555" width="60" height="30" as="geometry" />
        </mxCell>
        <mxCell id="y-HyT_H8LAneH-4PMTHc-181" value="Chat" style="text;html=1;align=center;verticalAlign=middle;whiteSpace=wrap;rounded=0;" vertex="1" parent="1">
          <mxGeometry x="-430" y="-555" width="60" height="30" as="geometry" />
        </mxCell>
        <mxCell id="y-HyT_H8LAneH-4PMTHc-182" value="Resources" style="text;html=1;align=center;verticalAlign=middle;whiteSpace=wrap;rounded=0;" vertex="1" parent="1">
          <mxGeometry x="-290" y="-555" width="60" height="30" as="geometry" />
        </mxCell>
        <mxCell id="y-HyT_H8LAneH-4PMTHc-183" value="Account" style="text;html=1;align=center;verticalAlign=middle;whiteSpace=wrap;rounded=0;" vertex="1" parent="1">
          <mxGeometry x="-150" y="-555" width="60" height="30" as="geometry" />
        </mxCell>
        <mxCell id="y-HyT_H8LAneH-4PMTHc-184" value="Journal" style="text;html=1;align=center;verticalAlign=middle;whiteSpace=wrap;rounded=0;" vertex="1" parent="1">
          <mxGeometry x="-360" y="-555" width="60" height="30" as="geometry" />
        </mxCell>
        <mxCell id="y-HyT_H8LAneH-4PMTHc-185" value="Feedback" style="text;html=1;align=center;verticalAlign=middle;whiteSpace=wrap;rounded=0;" vertex="1" parent="1">
          <mxGeometry x="-220" y="-555" width="60" height="30" as="geometry" />
        </mxCell>
        <mxCell id="y-HyT_H8LAneH-4PMTHc-186" value="Resources Page" style="text;html=1;align=center;verticalAlign=middle;whiteSpace=wrap;rounded=0;fontSize=20;fontStyle=1" vertex="1" parent="1">
          <mxGeometry x="-429" y="-110" width="198" height="30" as="geometry" />
        </mxCell>
        <mxCell id="y-HyT_H8LAneH-4PMTHc-212" value="&lt;b&gt;Journal Page&lt;/b&gt;" style="text;html=1;align=center;verticalAlign=middle;whiteSpace=wrap;rounded=0;fontSize=20;" vertex="1" parent="1">
          <mxGeometry x="-1109" y="208" width="198" height="30" as="geometry" />
        </mxCell>
        <mxCell id="y-HyT_H8LAneH-4PMTHc-262" value="" style="rounded=0;whiteSpace=wrap;html=1;" vertex="1" parent="1">
          <mxGeometry x="-1255" y="-240" width="490" height="440" as="geometry" />
        </mxCell>
        <mxCell id="y-HyT_H8LAneH-4PMTHc-263" value="" style="rounded=0;whiteSpace=wrap;html=1;" vertex="1" parent="1">
          <mxGeometry x="-1125" y="-240" width="60" height="40" as="geometry" />
        </mxCell>
        <mxCell id="y-HyT_H8LAneH-4PMTHc-264" value="" style="rounded=0;whiteSpace=wrap;html=1;" vertex="1" parent="1">
          <mxGeometry x="-1255" y="170" width="490" height="30" as="geometry" />
        </mxCell>
        <mxCell id="y-HyT_H8LAneH-4PMTHc-265" value="Copyright information, disclaimers, etc." style="text;html=1;align=center;verticalAlign=middle;whiteSpace=wrap;rounded=0;" vertex="1" parent="1">
          <mxGeometry x="-1125" y="170" width="230" height="30" as="geometry" />
        </mxCell>
        <mxCell id="y-HyT_H8LAneH-4PMTHc-266" value="" style="rounded=0;whiteSpace=wrap;html=1;" vertex="1" parent="1">
          <mxGeometry x="-1255" y="-240" width="70" height="40" as="geometry" />
        </mxCell>
        <mxCell id="y-HyT_H8LAneH-4PMTHc-267" value="" style="rounded=0;whiteSpace=wrap;html=1;" vertex="1" parent="1">
          <mxGeometry x="-1185" y="-240" width="70" height="40" as="geometry" />
        </mxCell>
        <mxCell id="y-HyT_H8LAneH-4PMTHc-268" value="" style="rounded=0;whiteSpace=wrap;html=1;" vertex="1" parent="1">
          <mxGeometry x="-1115" y="-240" width="70" height="40" as="geometry" />
        </mxCell>
        <mxCell id="y-HyT_H8LAneH-4PMTHc-269" value="" style="rounded=0;whiteSpace=wrap;html=1;" vertex="1" parent="1">
          <mxGeometry x="-1045" y="-240" width="70" height="40" as="geometry" />
        </mxCell>
        <mxCell id="y-HyT_H8LAneH-4PMTHc-270" value="" style="rounded=0;whiteSpace=wrap;html=1;" vertex="1" parent="1">
          <mxGeometry x="-975" y="-240" width="70" height="40" as="geometry" />
        </mxCell>
        <mxCell id="y-HyT_H8LAneH-4PMTHc-271" value="" style="rounded=0;whiteSpace=wrap;html=1;" vertex="1" parent="1">
          <mxGeometry x="-905" y="-240" width="70" height="40" as="geometry" />
        </mxCell>
        <mxCell id="y-HyT_H8LAneH-4PMTHc-272" value="" style="rounded=0;whiteSpace=wrap;html=1;" vertex="1" parent="1">
          <mxGeometry x="-835" y="-240" width="70" height="40" as="geometry" />
        </mxCell>
        <mxCell id="y-HyT_H8LAneH-4PMTHc-273" value="Logo and Name" style="text;html=1;align=center;verticalAlign=middle;whiteSpace=wrap;rounded=0;" vertex="1" parent="1">
          <mxGeometry x="-1250" y="-235" width="60" height="30" as="geometry" />
        </mxCell>
        <mxCell id="y-HyT_H8LAneH-4PMTHc-274" value="Home" style="text;html=1;align=center;verticalAlign=middle;whiteSpace=wrap;rounded=0;" vertex="1" parent="1">
          <mxGeometry x="-1180" y="-235" width="60" height="30" as="geometry" />
        </mxCell>
        <mxCell id="y-HyT_H8LAneH-4PMTHc-275" value="Chat" style="text;html=1;align=center;verticalAlign=middle;whiteSpace=wrap;rounded=0;" vertex="1" parent="1">
          <mxGeometry x="-1110" y="-235" width="60" height="30" as="geometry" />
        </mxCell>
        <mxCell id="y-HyT_H8LAneH-4PMTHc-276" value="Resources" style="text;html=1;align=center;verticalAlign=middle;whiteSpace=wrap;rounded=0;" vertex="1" parent="1">
          <mxGeometry x="-970" y="-235" width="60" height="30" as="geometry" />
        </mxCell>
        <mxCell id="y-HyT_H8LAneH-4PMTHc-277" value="Account" style="text;html=1;align=center;verticalAlign=middle;whiteSpace=wrap;rounded=0;" vertex="1" parent="1">
          <mxGeometry x="-830" y="-235" width="60" height="30" as="geometry" />
        </mxCell>
        <mxCell id="y-HyT_H8LAneH-4PMTHc-278" value="Journal" style="text;html=1;align=center;verticalAlign=middle;whiteSpace=wrap;rounded=0;" vertex="1" parent="1">
          <mxGeometry x="-1040" y="-235" width="60" height="30" as="geometry" />
        </mxCell>
        <mxCell id="y-HyT_H8LAneH-4PMTHc-279" value="Feedback" style="text;html=1;align=center;verticalAlign=middle;whiteSpace=wrap;rounded=0;" vertex="1" parent="1">
          <mxGeometry x="-900" y="-235" width="60" height="30" as="geometry" />
        </mxCell>
        <mxCell id="y-HyT_H8LAneH-4PMTHc-280" value="" style="rounded=0;whiteSpace=wrap;html=1;" vertex="1" parent="1">
          <mxGeometry x="-973.12" y="-95" width="184.5" height="170" as="geometry" />
        </mxCell>
        <mxCell id="y-HyT_H8LAneH-4PMTHc-283" value="(Text Entry Box)" style="text;html=1;align=center;verticalAlign=middle;whiteSpace=wrap;rounded=0;fontSize=15;" vertex="1" parent="1">
          <mxGeometry x="-992.12" y="-125" width="155" height="30" as="geometry" />
        </mxCell>
        <mxCell id="y-HyT_H8LAneH-4PMTHc-284" value="__________&amp;nbsp;&amp;nbsp;" style="text;html=1;align=center;verticalAlign=middle;whiteSpace=wrap;rounded=0;fontSize=15;" vertex="1" parent="1">
          <mxGeometry x="-993.12" y="-90" width="155" height="30" as="geometry" />
        </mxCell>
        <mxCell id="y-HyT_H8LAneH-4PMTHc-285" value="" style="rounded=0;whiteSpace=wrap;html=1;" vertex="1" parent="1">
          <mxGeometry x="-943.12" y="75" width="57" height="30" as="geometry" />
        </mxCell>
        <mxCell id="y-HyT_H8LAneH-4PMTHc-286" value="Submit" style="text;html=1;align=center;verticalAlign=middle;whiteSpace=wrap;rounded=0;fontSize=14;" vertex="1" parent="1">
          <mxGeometry x="-943.12" y="75" width="60" height="30" as="geometry" />
        </mxCell>
        <mxCell id="y-HyT_H8LAneH-4PMTHc-287" value="" style="rounded=0;whiteSpace=wrap;html=1;" vertex="1" parent="1">
          <mxGeometry x="-1245.37" y="-105" width="184.5" height="170" as="geometry" />
        </mxCell>
        <mxCell id="y-HyT_H8LAneH-4PMTHc-288" value="Today&#39;s Entry" style="text;html=1;align=center;verticalAlign=middle;whiteSpace=wrap;rounded=0;fontSize=15;" vertex="1" parent="1">
          <mxGeometry x="-1208.12" y="-135" width="100" height="30" as="geometry" />
        </mxCell>
        <mxCell id="y-HyT_H8LAneH-4PMTHc-289" value="" style="rounded=0;whiteSpace=wrap;html=1;" vertex="1" parent="1">
          <mxGeometry x="-886.12" y="75" width="98" height="30" as="geometry" />
        </mxCell>
        <mxCell id="y-HyT_H8LAneH-4PMTHc-290" value="Add Reflection" style="text;html=1;align=center;verticalAlign=middle;whiteSpace=wrap;rounded=0;fontSize=14;" vertex="1" parent="1">
          <mxGeometry x="-889.62" y="75" width="105" height="30" as="geometry" />
        </mxCell>
        <mxCell id="y-HyT_H8LAneH-4PMTHc-291" value="" style="rounded=0;whiteSpace=wrap;html=1;" vertex="1" parent="1">
          <mxGeometry x="-1060.87" y="-105" width="27.75" height="30" as="geometry" />
        </mxCell>
        <mxCell id="y-HyT_H8LAneH-4PMTHc-292" value="" style="triangle;whiteSpace=wrap;html=1;" vertex="1" parent="1">
          <mxGeometry x="-1023.12" y="-100" width="15" height="20" as="geometry" />
        </mxCell>
        <mxCell id="y-HyT_H8LAneH-4PMTHc-293" value="" style="rounded=0;whiteSpace=wrap;html=1;" vertex="1" parent="1">
          <mxGeometry x="-1060.87" y="-75" width="27.75" height="30" as="geometry" />
        </mxCell>
        <mxCell id="y-HyT_H8LAneH-4PMTHc-294" value="" style="rounded=0;whiteSpace=wrap;html=1;" vertex="1" parent="1">
          <mxGeometry x="-1060.87" y="-45" width="27.75" height="30" as="geometry" />
        </mxCell>
        <mxCell id="y-HyT_H8LAneH-4PMTHc-295" value="Reflections&lt;div&gt;&amp;nbsp;(Max 3, expands out on click)&lt;/div&gt;" style="text;html=1;align=center;verticalAlign=middle;whiteSpace=wrap;rounded=0;fontSize=15;" vertex="1" parent="1">
          <mxGeometry x="-1112.12" y="-190" width="140" height="70" as="geometry" />
        </mxCell>
        <mxCell id="y-HyT_H8LAneH-4PMTHc-297" style="edgeStyle=orthogonalEdgeStyle;rounded=0;orthogonalLoop=1;jettySize=auto;html=1;exitX=0.5;exitY=0;exitDx=0;exitDy=0;entryX=0;entryY=0.875;entryDx=0;entryDy=0;entryPerimeter=0;" edge="1" parent="1" source="y-HyT_H8LAneH-4PMTHc-43" target="y-HyT_H8LAneH-4PMTHc-130">
          <mxGeometry relative="1" as="geometry" />
        </mxCell>
        <mxCell id="y-HyT_H8LAneH-4PMTHc-299" style="edgeStyle=orthogonalEdgeStyle;rounded=0;orthogonalLoop=1;jettySize=auto;html=1;exitX=0.5;exitY=0;exitDx=0;exitDy=0;entryX=1.008;entryY=0.643;entryDx=0;entryDy=0;entryPerimeter=0;" edge="1" parent="1" source="y-HyT_H8LAneH-4PMTHc-22" target="y-HyT_H8LAneH-4PMTHc-262">
          <mxGeometry relative="1" as="geometry" />
        </mxCell>
        <mxCell id="y-HyT_H8LAneH-4PMTHc-301" value="" style="rounded=0;whiteSpace=wrap;html=1;" vertex="1" parent="1">
          <mxGeometry x="-565" y="-475" width="215" height="145" as="geometry" />
        </mxCell>
        <mxCell id="y-HyT_H8LAneH-4PMTHc-307" value="" style="shape=image;verticalLabelPosition=bottom;labelBackgroundColor=default;verticalAlign=top;aspect=fixed;imageAspect=0;editableCssRules=.*;image=data:image/svg+xml,PHN2ZyB4bWxuczp4bGluaz0iaHR0cDovL3d3dy53My5vcmcvMTk5OS94bGluayIgeG1sbnM9Imh0dHA6Ly93d3cudzMub3JnLzIwMDAvc3ZnIiBvdmVyZmxvdz0iaGlkZGVuIiBpZD0iSWNvbnNfSW1hZ2UiIHZpZXdCb3g9IjggMTggODAgNjIiIHZlcnNpb249IjEuMSIgd2lkdGg9IjgwIiBoZWlnaHQ9IjYyIj48cGF0aCBkPSJNIDc4IDY1LjYgTCA2NC4zMSA0My43OCBDIDY0LjA2NSA0My4zODAxIDYzLjYyODkgNDMuMTM3NCA2My4xNiA0My4xNCBDIDYyLjY4OSA0My4xMzk4IDYyLjI1MDkgNDMuMzgxNSA2MiA0My43OCBMIDU4IDUwLjIgTCA2Ni41OCA2NC4wOCBDIDY3LjMwNjEgNjUuMTc4IDY3LjQ2MjIgNjYuNTU3NCA2NyA2Ny43OSBMIDc2LjcgNjcuNzkgQyA3Ny40OTQzIDY3LjgyOTcgNzguMTcwNCA2Ny4yMTc5IDc4LjIxIDY2LjQyMzYgQyA3OC4yMjQ1IDY2LjEzNDIgNzguMTUxMyA2NS44NDcyIDc4IDY1LjYgWiIvPjxwYXRoIGQ9Ik0gNjMuMSA2NS43MyBMIDQxLjM1IDMwLjM0IEMgNDEuMDcwOSAyOS45Nzk1IDQwLjYzNTcgMjkuNzc0OSA0MC4xOCAyOS43OSBMIDQwIDI5Ljc5IEwgMzkuODIgMjkuNzkgQyAzOS4zNjQzIDI5Ljc3NDkgMzguOTI5MSAyOS45Nzk1IDM4LjY1IDMwLjM0IEwgMTYuOSA2NS43MyBDIDE2LjU5MTkgNjYuMTYxMSAxNi41NDk1IDY2LjcyNzkgMTYuNzkgNjcuMiBDIDE3LjAzMjYgNjcuNjI3OCAxNy41MTM1IDY3Ljg2MjMgMTggNjcuNzkgTCA2MiA2Ny43OSBDIDYyLjQ4NjUgNjcuODYyMyA2Mi45Njc0IDY3LjYyNzggNjMuMjEgNjcuMiBDIDYzLjQ1MDUgNjYuNzI3OSA2My40MDgxIDY2LjE2MTEgNjMuMSA2NS43MyBaIE0gNDMuNjQgNDYuOTIgTCA0MC4xOCA1MCBMIDM2LjcyIDQ2LjkyIEwgMzEgNTAuMzggTCA0MCAzNS43OSBMIDQ4Ljc2IDUwIFoiLz48Y2lyY2xlIHI9IjMiIGN5PSIzMiIgY3g9IjI3Ii8+PHBhdGggZD0iTSAxNCA3NCBMIDE0IDI0IEwgODIgMjQgTCA4MiA3NCBaIE0gODggODAgTCA4OCAxOCBMIDggMTggTCA4IDgwIFoiLz48L3N2Zz4=;" vertex="1" parent="1">
          <mxGeometry x="-550" y="-460" width="77.42" height="60" as="geometry" />
        </mxCell>
        <mxCell id="y-HyT_H8LAneH-4PMTHc-310" value="Resource description/explanation of usefulness for user." style="text;html=1;align=left;verticalAlign=middle;whiteSpace=wrap;rounded=0;" vertex="1" parent="1">
          <mxGeometry x="-552.42" y="-410" width="182.42" height="90" as="geometry" />
        </mxCell>
        <mxCell id="y-HyT_H8LAneH-4PMTHc-312" value="Resource 1" style="text;html=1;align=center;verticalAlign=middle;whiteSpace=wrap;rounded=0;" vertex="1" parent="1">
          <mxGeometry x="-584" y="-500" width="110" height="30" as="geometry" />
        </mxCell>
        <mxCell id="y-HyT_H8LAneH-4PMTHc-313" value="" style="rounded=0;whiteSpace=wrap;html=1;" vertex="1" parent="1">
          <mxGeometry x="-317.58" y="-475" width="215" height="145" as="geometry" />
        </mxCell>
        <mxCell id="y-HyT_H8LAneH-4PMTHc-314" value="" style="shape=image;verticalLabelPosition=bottom;labelBackgroundColor=default;verticalAlign=top;aspect=fixed;imageAspect=0;editableCssRules=.*;image=data:image/svg+xml,PHN2ZyB4bWxuczp4bGluaz0iaHR0cDovL3d3dy53My5vcmcvMTk5OS94bGluayIgeG1sbnM9Imh0dHA6Ly93d3cudzMub3JnLzIwMDAvc3ZnIiBvdmVyZmxvdz0iaGlkZGVuIiBpZD0iSWNvbnNfSW1hZ2UiIHZpZXdCb3g9IjggMTggODAgNjIiIHZlcnNpb249IjEuMSIgd2lkdGg9IjgwIiBoZWlnaHQ9IjYyIj48cGF0aCBkPSJNIDc4IDY1LjYgTCA2NC4zMSA0My43OCBDIDY0LjA2NSA0My4zODAxIDYzLjYyODkgNDMuMTM3NCA2My4xNiA0My4xNCBDIDYyLjY4OSA0My4xMzk4IDYyLjI1MDkgNDMuMzgxNSA2MiA0My43OCBMIDU4IDUwLjIgTCA2Ni41OCA2NC4wOCBDIDY3LjMwNjEgNjUuMTc4IDY3LjQ2MjIgNjYuNTU3NCA2NyA2Ny43OSBMIDc2LjcgNjcuNzkgQyA3Ny40OTQzIDY3LjgyOTcgNzguMTcwNCA2Ny4yMTc5IDc4LjIxIDY2LjQyMzYgQyA3OC4yMjQ1IDY2LjEzNDIgNzguMTUxMyA2NS44NDcyIDc4IDY1LjYgWiIvPjxwYXRoIGQ9Ik0gNjMuMSA2NS43MyBMIDQxLjM1IDMwLjM0IEMgNDEuMDcwOSAyOS45Nzk1IDQwLjYzNTcgMjkuNzc0OSA0MC4xOCAyOS43OSBMIDQwIDI5Ljc5IEwgMzkuODIgMjkuNzkgQyAzOS4zNjQzIDI5Ljc3NDkgMzguOTI5MSAyOS45Nzk1IDM4LjY1IDMwLjM0IEwgMTYuOSA2NS43MyBDIDE2LjU5MTkgNjYuMTYxMSAxNi41NDk1IDY2LjcyNzkgMTYuNzkgNjcuMiBDIDE3LjAzMjYgNjcuNjI3OCAxNy41MTM1IDY3Ljg2MjMgMTggNjcuNzkgTCA2MiA2Ny43OSBDIDYyLjQ4NjUgNjcuODYyMyA2Mi45Njc0IDY3LjYyNzggNjMuMjEgNjcuMiBDIDYzLjQ1MDUgNjYuNzI3OSA2My40MDgxIDY2LjE2MTEgNjMuMSA2NS43MyBaIE0gNDMuNjQgNDYuOTIgTCA0MC4xOCA1MCBMIDM2LjcyIDQ2LjkyIEwgMzEgNTAuMzggTCA0MCAzNS43OSBMIDQ4Ljc2IDUwIFoiLz48Y2lyY2xlIHI9IjMiIGN5PSIzMiIgY3g9IjI3Ii8+PHBhdGggZD0iTSAxNCA3NCBMIDE0IDI0IEwgODIgMjQgTCA4MiA3NCBaIE0gODggODAgTCA4OCAxOCBMIDggMTggTCA4IDgwIFoiLz48L3N2Zz4=;" vertex="1" parent="1">
          <mxGeometry x="-302.58" y="-460" width="77.42" height="60" as="geometry" />
        </mxCell>
        <mxCell id="y-HyT_H8LAneH-4PMTHc-315" value="Resource description/explanation of usefulness for user." style="text;html=1;align=left;verticalAlign=middle;whiteSpace=wrap;rounded=0;" vertex="1" parent="1">
          <mxGeometry x="-304.99999999999994" y="-410" width="182.42" height="90" as="geometry" />
        </mxCell>
        <mxCell id="y-HyT_H8LAneH-4PMTHc-316" value="Resource 2" style="text;html=1;align=center;verticalAlign=middle;whiteSpace=wrap;rounded=0;" vertex="1" parent="1">
          <mxGeometry x="-338" y="-501" width="110" height="30" as="geometry" />
        </mxCell>
        <mxCell id="y-HyT_H8LAneH-4PMTHc-317" value="(Multiple resources will be provided for users to seek help from professional health care providers)" style="text;html=1;align=center;verticalAlign=middle;whiteSpace=wrap;rounded=0;fontSize=15;" vertex="1" parent="1">
          <mxGeometry x="-509.99999999999994" y="-310" width="372.42" height="100" as="geometry" />
        </mxCell>
        <mxCell id="y-HyT_H8LAneH-4PMTHc-337" value="&lt;b&gt;Chat Page&lt;/b&gt;" style="text;html=1;align=center;verticalAlign=middle;whiteSpace=wrap;rounded=0;fontSize=20;" vertex="1" parent="1">
          <mxGeometry x="-1084" y="778" width="198" height="30" as="geometry" />
        </mxCell>
        <mxCell id="y-HyT_H8LAneH-4PMTHc-338" value="" style="rounded=0;whiteSpace=wrap;html=1;" vertex="1" parent="1">
          <mxGeometry x="-1230" y="330" width="490" height="440" as="geometry" />
        </mxCell>
        <mxCell id="y-HyT_H8LAneH-4PMTHc-339" value="" style="rounded=0;whiteSpace=wrap;html=1;" vertex="1" parent="1">
          <mxGeometry x="-1100" y="330" width="60" height="40" as="geometry" />
        </mxCell>
        <mxCell id="y-HyT_H8LAneH-4PMTHc-340" value="" style="rounded=0;whiteSpace=wrap;html=1;" vertex="1" parent="1">
          <mxGeometry x="-1230" y="740" width="490" height="30" as="geometry" />
        </mxCell>
        <mxCell id="y-HyT_H8LAneH-4PMTHc-341" value="Copyright information, disclaimers, etc." style="text;html=1;align=center;verticalAlign=middle;whiteSpace=wrap;rounded=0;" vertex="1" parent="1">
          <mxGeometry x="-1100" y="740" width="230" height="30" as="geometry" />
        </mxCell>
        <mxCell id="y-HyT_H8LAneH-4PMTHc-342" value="" style="rounded=0;whiteSpace=wrap;html=1;" vertex="1" parent="1">
          <mxGeometry x="-1230" y="330" width="70" height="40" as="geometry" />
        </mxCell>
        <mxCell id="y-HyT_H8LAneH-4PMTHc-343" value="" style="rounded=0;whiteSpace=wrap;html=1;" vertex="1" parent="1">
          <mxGeometry x="-1160" y="330" width="70" height="40" as="geometry" />
        </mxCell>
        <mxCell id="y-HyT_H8LAneH-4PMTHc-344" value="" style="rounded=0;whiteSpace=wrap;html=1;" vertex="1" parent="1">
          <mxGeometry x="-1090" y="330" width="70" height="40" as="geometry" />
        </mxCell>
        <mxCell id="y-HyT_H8LAneH-4PMTHc-345" value="" style="rounded=0;whiteSpace=wrap;html=1;" vertex="1" parent="1">
          <mxGeometry x="-1020" y="330" width="70" height="40" as="geometry" />
        </mxCell>
        <mxCell id="y-HyT_H8LAneH-4PMTHc-346" value="" style="rounded=0;whiteSpace=wrap;html=1;" vertex="1" parent="1">
          <mxGeometry x="-950" y="330" width="70" height="40" as="geometry" />
        </mxCell>
        <mxCell id="y-HyT_H8LAneH-4PMTHc-347" value="" style="rounded=0;whiteSpace=wrap;html=1;" vertex="1" parent="1">
          <mxGeometry x="-880" y="330" width="70" height="40" as="geometry" />
        </mxCell>
        <mxCell id="y-HyT_H8LAneH-4PMTHc-348" value="" style="rounded=0;whiteSpace=wrap;html=1;" vertex="1" parent="1">
          <mxGeometry x="-810" y="330" width="70" height="40" as="geometry" />
        </mxCell>
        <mxCell id="y-HyT_H8LAneH-4PMTHc-349" value="Logo and Name" style="text;html=1;align=center;verticalAlign=middle;whiteSpace=wrap;rounded=0;" vertex="1" parent="1">
          <mxGeometry x="-1225" y="335" width="60" height="30" as="geometry" />
        </mxCell>
        <mxCell id="y-HyT_H8LAneH-4PMTHc-350" value="Home" style="text;html=1;align=center;verticalAlign=middle;whiteSpace=wrap;rounded=0;" vertex="1" parent="1">
          <mxGeometry x="-1155" y="335" width="60" height="30" as="geometry" />
        </mxCell>
        <mxCell id="y-HyT_H8LAneH-4PMTHc-351" value="Chat" style="text;html=1;align=center;verticalAlign=middle;whiteSpace=wrap;rounded=0;" vertex="1" parent="1">
          <mxGeometry x="-1085" y="335" width="60" height="30" as="geometry" />
        </mxCell>
        <mxCell id="y-HyT_H8LAneH-4PMTHc-352" value="Resources" style="text;html=1;align=center;verticalAlign=middle;whiteSpace=wrap;rounded=0;" vertex="1" parent="1">
          <mxGeometry x="-945" y="335" width="60" height="30" as="geometry" />
        </mxCell>
        <mxCell id="y-HyT_H8LAneH-4PMTHc-353" value="Account" style="text;html=1;align=center;verticalAlign=middle;whiteSpace=wrap;rounded=0;" vertex="1" parent="1">
          <mxGeometry x="-805" y="335" width="60" height="30" as="geometry" />
        </mxCell>
        <mxCell id="y-HyT_H8LAneH-4PMTHc-354" value="Journal" style="text;html=1;align=center;verticalAlign=middle;whiteSpace=wrap;rounded=0;" vertex="1" parent="1">
          <mxGeometry x="-1015" y="335" width="60" height="30" as="geometry" />
        </mxCell>
        <mxCell id="y-HyT_H8LAneH-4PMTHc-355" value="Feedback" style="text;html=1;align=center;verticalAlign=middle;whiteSpace=wrap;rounded=0;" vertex="1" parent="1">
          <mxGeometry x="-875" y="335" width="60" height="30" as="geometry" />
        </mxCell>
        <mxCell id="y-HyT_H8LAneH-4PMTHc-356" value="" style="ellipse;whiteSpace=wrap;html=1;aspect=fixed;" vertex="1" parent="1">
          <mxGeometry x="-824" y="641" width="79" height="79" as="geometry" />
        </mxCell>
        <mxCell id="y-HyT_H8LAneH-4PMTHc-357" value="" style="rounded=0;whiteSpace=wrap;html=1;" vertex="1" parent="1">
          <mxGeometry x="-1015" y="535" width="185" height="115" as="geometry" />
        </mxCell>
        <mxCell id="y-HyT_H8LAneH-4PMTHc-358" value="" style="shape=image;verticalLabelPosition=bottom;labelBackgroundColor=default;verticalAlign=top;aspect=fixed;imageAspect=0;editableCssRules=.*;image=data:image/svg+xml,PHN2ZyB4bWxuczp4bGluaz0iaHR0cDovL3d3dy53My5vcmcvMTk5OS94bGluayIgeG1sbnM9Imh0dHA6Ly93d3cudzMub3JnLzIwMDAvc3ZnIiBvdmVyZmxvdz0iaGlkZGVuIiBpZD0iSWNvbnNfVXNlcl9NIiB2aWV3Qm94PSIxNiAxNCA2NCA2OCIgd2lkdGg9IjY0IiBoZWlnaHQ9IjY4Ij48ZyBpZD0iSWNvbnMiPjxwYXRoIGQ9Ik00OCAxNkM1NS43MzIgMTYgNjIgMjIuMjY4IDYyIDMwIDYyIDM3LjczMiA1NS43MzIgNDQgNDggNDQgNDAuMjY4IDQ0IDM0IDM3LjczMiAzNCAzMCAzNC4wMDc3IDIyLjI3MTIgNDAuMjcxMiAxNi4wMDc3IDQ4IDE2TTQ4IDE0QzM5LjE2MzQgMTQgMzIgMjEuMTYzNCAzMiAzMCAzMiAzOC44MzY2IDM5LjE2MzQgNDYgNDggNDYgNTYuODM2NiA0NiA2NCAzOC44MzY2IDY0IDMwIDY0IDIxLjE2MzQgNTYuODM2NiAxNCA0OCAxNFoiLz48cGF0aCBkPSJNODAgODIgNzggODIgNzggNjYuNUM3Ny45NTI0IDY0LjM3NTkgNzYuOTUxNyA2Mi4zODU5IDc1LjI3NSA2MS4wODEgNzAuODg5MyA1Ny43MTU4IDY1Ljg2NzggNTUuMjczMSA2MC41MTMgNTMuOSA1Ni40NTg3IDUyLjY1MjQgNTIuMjQxOSA1Mi4wMTIxIDQ4IDUyIDQzLjc1OTQgNTIuMDczNiAzOS41NDc2IDUyLjcxMjYgMzUuNDc2IDUzLjkgMzAuMTc3MSA1NS40NTIgMjUuMTc3OCA1Ny44ODYxIDIwLjY4OCA2MS4xIDE5LjAyODIgNjIuNDA2NCAxOC4wNDE3IDY0LjM4ODIgMTggNjYuNUwxOCA4MiAxNiA4MiAxNiA2Ni41QzE2LjA0OTYgNjMuNzY4NiAxNy4zMjYzIDYxLjIwNDcgMTkuNDc2IDU5LjUxOSAyNC4xNjc1IDU2LjE1MTIgMjkuMzk0OSA1My42MDEyIDM0LjkzNyA1MS45NzcgMzkuMTgzOSA1MC43Mzk2IDQzLjU3NzEgNTAuMDc0NyA0OCA1MCA1Mi40MzIxIDUwLjAxMDkgNTYuODM4MiA1MC42Nzc4IDYxLjA3NSA1MS45NzkgNjYuNjg0NSA1My40MjQ0IDcxLjk0MjkgNTUuOTkxMyA3Ni41MzMgNTkuNTI1IDc4LjY3ODQgNjEuMjEwNiA3OS45NTE2IDYzLjc3MiA4MCA2Ni41WiIvPjwvZz48L3N2Zz4=;" vertex="1" parent="1">
          <mxGeometry x="-812.74" y="650" width="56.47" height="60" as="geometry" />
        </mxCell>
        <mxCell id="y-HyT_H8LAneH-4PMTHc-359" value="" style="rounded=0;whiteSpace=wrap;html=1;" vertex="1" parent="1">
          <mxGeometry x="-1140" y="410" width="185" height="115" as="geometry" />
        </mxCell>
        <mxCell id="y-HyT_H8LAneH-4PMTHc-360" value="" style="ellipse;whiteSpace=wrap;html=1;aspect=fixed;" vertex="1" parent="1">
          <mxGeometry x="-1225" y="510.5" width="79" height="79" as="geometry" />
        </mxCell>
        <mxCell id="y-HyT_H8LAneH-4PMTHc-361" value="" style="rounded=0;whiteSpace=wrap;html=1;" vertex="1" parent="1">
          <mxGeometry x="-1204.62" y="540.0032034355964" width="39.62" height="30" as="geometry" />
        </mxCell>
        <mxCell id="y-HyT_H8LAneH-4PMTHc-362" value="" style="rounded=0;whiteSpace=wrap;html=1;" vertex="1" parent="1">
          <mxGeometry x="-1209.62" y="530.0032034355964" width="5" height="25" as="geometry" />
        </mxCell>
        <mxCell id="y-HyT_H8LAneH-4PMTHc-363" value="" style="rounded=0;whiteSpace=wrap;html=1;" vertex="1" parent="1">
          <mxGeometry x="-1165" y="530.0032034355964" width="5" height="25" as="geometry" />
        </mxCell>
        <mxCell id="y-HyT_H8LAneH-4PMTHc-364" value="" style="ellipse;whiteSpace=wrap;html=1;aspect=fixed;" vertex="1" parent="1">
          <mxGeometry x="-1200.62" y="544.0032034355964" width="10" height="10" as="geometry" />
        </mxCell>
        <mxCell id="y-HyT_H8LAneH-4PMTHc-365" value="" style="ellipse;whiteSpace=wrap;html=1;aspect=fixed;" vertex="1" parent="1">
          <mxGeometry x="-1178.62" y="544.0032034355964" width="10" height="10" as="geometry" />
        </mxCell>
        <mxCell id="y-HyT_H8LAneH-4PMTHc-366" value="" style="rounded=0;whiteSpace=wrap;html=1;direction=west;" vertex="1" parent="1">
          <mxGeometry x="-1189.62" y="558.0032034355964" width="9.81" height="5" as="geometry" />
        </mxCell>
        <mxCell id="y-HyT_H8LAneH-4PMTHc-367" value="__________&amp;nbsp;&amp;nbsp;" style="text;html=1;align=center;verticalAlign=middle;whiteSpace=wrap;rounded=0;fontSize=15;" vertex="1" parent="1">
          <mxGeometry x="-1155" y="410" width="155" height="30" as="geometry" />
        </mxCell>
        <mxCell id="y-HyT_H8LAneH-4PMTHc-368" value="__________&amp;nbsp;&amp;nbsp;" style="text;html=1;align=center;verticalAlign=middle;whiteSpace=wrap;rounded=0;fontSize=15;" vertex="1" parent="1">
          <mxGeometry x="-1035" y="533" width="155" height="30" as="geometry" />
        </mxCell>
        <mxCell id="y-HyT_H8LAneH-4PMTHc-369" value="" style="rounded=0;whiteSpace=wrap;html=1;" vertex="1" parent="1">
          <mxGeometry x="-887" y="650" width="57" height="30" as="geometry" />
        </mxCell>
        <mxCell id="y-HyT_H8LAneH-4PMTHc-370" value="Submit" style="text;html=1;align=center;verticalAlign=middle;whiteSpace=wrap;rounded=0;fontSize=14;" vertex="1" parent="1">
          <mxGeometry x="-887" y="650" width="60" height="30" as="geometry" />
        </mxCell>
        <mxCell id="y-HyT_H8LAneH-4PMTHc-371" style="edgeStyle=orthogonalEdgeStyle;rounded=0;orthogonalLoop=1;jettySize=auto;html=1;exitX=1;exitY=0.5;exitDx=0;exitDy=0;entryX=0;entryY=0.207;entryDx=0;entryDy=0;entryPerimeter=0;" edge="1" parent="1" source="y-HyT_H8LAneH-4PMTHc-18" target="y-HyT_H8LAneH-4PMTHc-67">
          <mxGeometry relative="1" as="geometry" />
        </mxCell>
        <mxCell id="y-HyT_H8LAneH-4PMTHc-372" style="edgeStyle=orthogonalEdgeStyle;rounded=0;orthogonalLoop=1;jettySize=auto;html=1;exitX=0.5;exitY=0;exitDx=0;exitDy=0;entryX=0.998;entryY=0.177;entryDx=0;entryDy=0;entryPerimeter=0;" edge="1" parent="1" source="y-HyT_H8LAneH-4PMTHc-19" target="y-HyT_H8LAneH-4PMTHc-338">
          <mxGeometry relative="1" as="geometry">
            <Array as="points">
              <mxPoint x="-375" y="85" />
              <mxPoint x="-650" y="85" />
              <mxPoint x="-650" y="408" />
            </Array>
          </mxGeometry>
        </mxCell>
      </root>
    </mxGraphModel>
  </diagram>
</mxfile>
